<svg xmlns="http://www.w3.org/2000/svg" fill="none" viewBox="-0.5 -0.5 14 14"><g id="calculator-1--shop-shopping-pay-payment-store-cash-calculate-math"><path id="Union" fill="#414760" d="M0.993 1.623c0 -0.865 0.695 -1.582 1.571 -1.582h7.872c0.877 0 1.571 0.717 1.571 1.582v9.754c0 0.865 -0.695 1.582 -1.571 1.582H2.564a1.577 1.577 0 0 1 -1.571 -1.582V1.623Z" stroke-width="1"></path><path id="Subtract" fill="#b28bec" fill-rule="evenodd" d="M2.385 1.623c0 -0.113 0.088 -0.189 0.178 -0.189h7.872c0.09 0 0.178 0.076 0.178 0.189v3.172H2.386V1.623Zm5.474 0.979a0.58 0.58 0 1 0 0 1.161l1.318 0a0.58 0.58 0 1 0 0 -1.161l-1.318 0Z" clip-rule="evenodd" stroke-width="1"></path><path id="Union_2" fill="#b28bec" fill-rule="evenodd" d="M3.556 8.097a0.696 0.696 0 1 0 0 -1.393 0.696 0.696 0 0 0 0 1.393ZM6.5 8.097a0.696 0.696 0 1 0 0 -1.393 0.696 0.696 0 0 0 0 1.393Zm3.64 -0.696a0.696 0.696 0 1 1 -1.393 0 0.696 0.696 0 0 1 1.393 0Zm-6.584 3.689a0.696 0.696 0 1 0 0 -1.393 0.696 0.696 0 0 0 0 1.393Zm3.641 -0.696a0.696 0.696 0 1 1 -1.393 0 0.696 0.696 0 0 1 1.393 0Zm2.247 0.696a0.696 0.696 0 1 0 0 -1.393 0.696 0.696 0 0 0 0 1.393Z" clip-rule="evenodd" stroke-width="1"></path></g></svg>